<?xml version='1.0' encoding='utf-8'?>
<svg xmlns="http://www.w3.org/2000/svg" viewBox="0 0 2792.45 2792.45"><defs><style>.cls-1{fill:#fefefe;}.cls-2{fill:#3d3a40;}.cls-3{fill:#9c8166;}.cls-4{fill:#161616;}.cls-5{fill:#f3c6a4;}.cls-6{fill:#ba9c8f;}.cls-7{fill:#392a29;}.cls-8{fill:#4c3831;}.cls-9{fill:#acc1e3;}.cls-10{fill:#eec5a5;}.cls-11{fill:#ebbf9f;}.cls-12{fill:#312a28;}.cls-13{fill:#434847;}.cls-14{fill:#faede2;}.cls-15{fill:#cbdcd7;}.cls-16{fill:#abbfe1;}.cls-17{fill:#929eb9;}.cls-18{fill:#776758;}.cls-19{fill:#7a7d91;}.cls-20{fill:#7f6455;}.cls-21{fill:#c5c6c0;}.cls-22{fill:#fcf3eb;}.cls-23{fill:#f7dac4;}.cls-24{fill:#423c35;}.cls-25{fill:#fbefe5;}</style></defs><title>man woman talking</title><g id="Layer_2" data-name="Layer 2"><g id="Layer_1-2" data-name="Layer 1"><circle class="cls-1" cx="1396.23" cy="1396.23" r="1974.56"/><path class="cls-2" d="M915,1111.46c3.74,22.49,3.6,45.26,3.26,67.86-.83,54.42.42,108.88-2.47,163.27-1,19.46-2.63,38.89-3.36,58.39-1,27.51-17.15,45.5-44.19,50.76-6.15,1.19-12.1,4.21-18.67,2.77-6.65-2.39-8.32-7.92-8.61-14.1-.43-9.06-.8-18.14.65-27.15,2.47-8.38,2.59-17,3.53-23.8.69,1.41-1,4.63-1.07,7.88-15.17,55.29-38.63,69.92-95.61,63-51.17-6.26-102.41-12-153.56-18.4-18.86-2.36-37.48-6.53-56.1-10.34-23.95-4.91-47.78-10.35-72.12-13.09-4.87-.55-10.05-.62-13.9-4.52-30-1.43-58.5-12-88.39-14.28a47.49,47.49,0,0,1-21.88-6.86c-10.6-6.67-12.25-12-8.9-24,8.63-30.93,17.56-61.81,25.1-93,5.63-23.3,7.56-47.45,14.59-70.47,10.42-34.17,17.12-69.5,32.33-102.21,4.39-9.43,5.38-20.08,6.26-30.51,6-71,10.52-142,7.51-213.25-.3-7.26-.4-14.46-2.16-21.58-11.9-48.1-9.81-97.21-10.44-146.13-.22-17.84,1.7-35.43,7.49-52.25,12.25-35.58,26.8-70.25,45.47-103,12.4-21.76,31.56-37.15,51.56-51.5,6.63-4.75,13.14-9.78,20.2-13.8,22.52-12.82,38.11-31.87,49.57-54.53,3.54-7,8.09-11.83,15.72-13.61,7.48-4.43,12.93.71,18.62,4.12,33.38,20,55,50.6,74.7,82.93,43.79,71.81,78.58,147.88,109,226.23C811.38,748,822,780.17,833.12,812c-.76-10.49,1-20.93-2.1-31.07-6.76-47.47-22.84-92.19-40.2-136.51-7.27-18.55-14.34-37.18-21.93-55.6-1.57-3.82-2.83-8.13,1.29-11.15,3.62-2.65,6.8-1.75,8.49,2.71,24.18,50.22,45.92,101.4,64.06,154.17,10.14,29.52,22.36,58.23,29.93,88.75,8.12,32.72,11.78,65.93,15.74,99.2,1.23,10.35,2.11,20.75,3.46,31.08.49,3.71.74,7.18-1.12,10.54-1.49,3.92-5,6.27-7.26,9.6,1.83,17.94,6.33,35.41,7.49,53.45,1.21,18.62,1,37.17.62,55.76-.12,6.54-2.61,12.37-6.2,17.76-2.29,33.85-3,67.79-6.7,101.54-1,9-2.32,18-3.49,26.92a41.17,41.17,0,0,1-1.36,5.12c-.53,1.74-.8-.37-.31,1.23.72,2.32,1.14-.51,1.89-.53,14.61-14.41,20.54-30.87,15.13-51.47-2.49-9.5-.65-19.78,2.05-29.39a45.69,45.69,0,0,0-3.2-34c-3-6-5.45-12.4-4-19.46,11.87-12.66,21.35-11.72,27.32,2.7l.57,3C914,1108,913.9,1109.92,915,1111.46Z"/><path class="cls-3" d="M844.79,1411.41c0,8.95.24,17.91-.06,26.85-.2,6.07.94,11.51,4.83,16.25-7.64,12.72-4.28,27.38-7.19,40.94a32.59,32.59,0,0,0-.35,8.15c1.79,41.48-5.39,82.28-9.5,123.29-1.37,13.61-1.39,27.2-1.39,40.79a347.74,347.74,0,0,1-8.47,76.91c-6,26.62-7.31,53.89-12.39,80.59-7.88,41.39-16.44,82.65-23.81,124.13-3.4,19.15-4.94,38.66-6.79,58-1,10.93-3.75,21.43-6.34,32a40.73,40.73,0,0,1-14.68,22.42c-10.31,8.16-15.42,18.06-15.82,31.46a71.88,71.88,0,0,1-19.08,47c-4.26,4.73-8.21,9.56-7.69,16.74,2.53,35-9.7,66.88-21.47,98.81a11.64,11.64,0,0,1-.49,1.28c-10.66,21.27-11.2,42.55-5,65.82a488.15,488.15,0,0,1,16.36,112.78c.31,11.13-1.22,21.79-7.35,31.29-4.51,7-3.48,12.65,2.84,17.82,7.53,6.16,11,14.23,10.61,23.95-1.08,5.25-4.68,8.85-8.6,11.9-22.26,17.26-45.21,33.48-72,43-7.88,2.8-15,6.12-20.15,13-3.64,4.87-9,7.48-14.8,9.14-22.41,6.37-43.06,16.64-63.19,28.2-37.08,21.28-76.6,26.63-118.21,17.38-4-.89-8-1.92-11-4.93a40.87,40.87,0,0,1-2.73-15.89c.14-73-.27-146.08.17-219.12.23-38.08.74-76.23,3.11-114.22,3.88-62,11.53-123.53,24.75-184.36,10.42-47.93,26.05-94.28,40.62-140.95a75.38,75.38,0,0,0,3.08-30.55c-2.71-28.89-3.73-58,.52-86.85,6.31-42.83,6.19-85.88,6.32-129,.07-25.4-.26-50.81-.39-76.21-.17-35.94-5.1-71.31-11.86-106.54-6.9-36-16.19-71.69-14.41-108.84,22.67.6,44.88,4.56,66.92,9.44,35.7,7.89,71.55,14.47,108,18,14.71,1.44,29.19,5.24,44.09,6.43q34.37,2.76,68.58,7.36c13.51,1.82,27,3,40.53,2.16,24.81-1.48,43-12.4,51.22-37,1.72-5.14,3.83-10.15,5.81-15.2,1.32-3.37,2.72-6.7,4.08-10C849.93,1399.33,844.64,1405.84,844.79,1411.41Z"/><path class="cls-4" d="M2005.76,1839.67c-10.14-3.87-20.34-7.6-30.4-11.65-11.51-4.64-11.36-4.76-11-16.88,1.61-50.91-1.18-101.41-13.5-151.1-6.1-24.61-10.46-49.58-14.44-74.63-6.56-41.34-8.43-82.91-7.3-124.67.14-5.44,0-10.89.27-16.32,2.12-40.18-4-79.17-13.22-118.3-7.32-31.22-15.63-62.31-21-94-1.92-11.28-1.67-22.58-1.8-33.89-.31-29-.31-58-.53-87,0-6.33,0-12.71-2.23-18.81-7.67-28.56-15.46-57.1-13-87.16V980.75c.49-9.69,4.3-10.6,11.52-4.77,33.46,27,66.14,55,99.17,82.5,23.71,19.76,49.55,36.51,75.8,52.61,15,9.22,28.21,21.23,44.74,28.22,16.74,7.09,29.22,5.13,41.87-7.92a70.44,70.44,0,0,0,14-19.94c17.3-38.33,37.9-75.27,48.79-116.31,2-7.37,4.57-14.79,10.8-20a5.13,5.13,0,0,1,3.94-.53c1.81,1.63,1.71,3.52.74,5.53-.29,1.31-.57,2.63-.86,3.94-1.13,1.21-1,2.88-1.58,4.28-12.17,42.48-19.86,85.6-19.17,130,.15,9.62,2,18.7,4.59,28,9.16,32.61,24.39,62.38,41.43,91.31,14.52,24.67,25.84,50.87,37.69,76.82,8.09,17.71,15.36,35.79,23.17,53.62a119.53,119.53,0,0,1,10.34,48.8c0,25.9-1.33,51.65-5.62,77.24a173.16,173.16,0,0,1-9.13,32.65c-18.09,47.77-20.58,96.75-15.1,147.24,4.4,40.48,11.53,80.84,10.41,121.84-.08,3.17-.26,6.35-.17,9.52.23,7.51-2.42,12.29-10.78,12.26a9,9,0,0,0-6.28,2.19c-17.11,10.1-36.92,11.42-55.49,16.63-36,10.13-73.28,11.16-110.39,12-27.62.59-55.26.44-82.89,0C2027.49,1848.12,2015.41,1848.22,2005.76,1839.67Z"/><path class="cls-5" d="M2005.76,1839.67a188.85,188.85,0,0,0,41.7,4.16c39.37-.49,78.75.46,118.12-1.45,26.86-1.3,52.92-6.26,78.74-13.24,14.36-3.88,28.62-8.34,43.59-9.38.09,19.06,1.05,38.15.07,57.15-1.6,30.64,2,60.72,9.52,90.13,8.69,34.2,14,69.14,23.6,103.1,6.88,24.38,14.71,48.49,20.16,73.27,4.19,19,7.85,38.06,7.39,57.72-.31,12.66,2.52,25.14,2.42,37.91-.15,20.05-3.17,39.56-7.33,59.07-8.4,39.45-21.27,77.57-32.83,116.13-12.71,42.35-25.54,85-30,129.26-2.56,25.6-5,51.43-3.27,77.32-16.21,25.74-42.91,36.8-68.84,48.74-9.88,4.54-19.91,8.73-29.52,13.9-44.39,23.85-92.31,28.35-141.46,24.86-14.66-1-26.45-9.16-36.42-19.55-9-9.42-8.24-16.1,4-20.42,29-10.25,54.6-26.44,78.74-42.64-44.45,12.92-91.55,14.58-138.73,14.84-9.62,0-20.36-.05-25.76-11.08,44.59-22.49,87.54-47.67,127.62-77.57,3.67-2.74,7.16-5.68,9.32-9.78,15.19-28.95,28.21-58.8,37.11-90.35a46.08,46.08,0,0,0,1.4-12.11c.83-52.62-3-105.15-3.86-157.75-.39-22.32-3.54-45-6.38-67.41-1.25-9.85-.75-19.94-.81-29.93-.11-20-.19-40-.07-59.92.2-33.52-7.4-64.57-27.7-92-5.92-8-10.55-16.92-16-25.24-10.59-16.08-14.4-34.42-15.27-52.92-.91-19.2-5.38-37.56-9-56.18C2012.28,1878.84,2008.12,1859.41,2005.76,1839.67Z"/><path class="cls-4" d="M2260.85,904c-4.81,4.06-5.94,10.06-7.7,15.54a260.4,260.4,0,0,1-19.55,44.73c-3.7.52-4.22-2.32-5.1-4.79-.65-3.16-.59-6.43-1.39-9.58-1.45-3-3.49-5.81-3.62-9.34,3.64-19.17,11.15-37.25,15.74-56.18,2.56-10.61.06-16.56-10.19-19.64-13.48-4.06-27.06-8.19-41.2-8.07-23.06.19-46.21-2.06-69.18,1.89-19.59,3.37-25,9.46-25.29,30-.3,24.46,0,48.93-.1,73.4-.1,22.38-4.07,25.33-26.28,19.44-57.31-15.19-108.7-42.32-155.71-78-14.15-10.74-30.2-18.33-44.73-28.37-4.41-3.05-9.8-5.12-10.83-11.37-.19-13.6.38-27.17,1.17-40.77,1.6-27.74,14.55-48.75,35.26-66.32,15.89-13.48,31-28,46.19-42.2,11.67-10.91,20.87-23.73,29.11-37.45,12.13-20.2,25.6-39.52,42.93-55.79,2.17-1.17,3.23.23,4.21,1.81.86,2.65,1.16,5.9,5.36,5,21.8-12.73,41.2-29,62.94-41.74,23.26-13.69,45.19-29.59,69-42.52,27.38-16.94,33.69-17.86,58,2.92,58.78,50.17,94.14,112.33,96.11,191.71,1.17,47.19-8,91.85-25.79,135.07C2275.58,884.5,2270.51,895.76,2260.85,904Z"/><path class="cls-6" d="M2260.85,904c.3-1.31.27-2.83,1-3.89,21.8-33.83,31.26-72,38.25-110.86,4.27-23.76,2.54-47.89.73-71.77-4.51-59.24-32.46-107.32-72.83-149.2-9.43-9.79-19.13-19.16-30.44-26.94-12-8.23-23.22-8.91-35.05-.28-3.23,2.37-7,4-10.48,6-29,.73-49.59-15.94-67.86-35-27-28.23-40-62.43-42.41-101.89-1.42-23.75-4.68-47.76-11.06-71.07a38.67,38.67,0,0,0-15.87-22.62c-26.18-18.58-48.08-41.3-63.27-69.91-2.52-4.73-5.68-9.45-4.19-15.35-3.13-12.49-2-25.22-2.32-37.89-.16-5.85,2.58-9.29,7.51-11.69,13.85-6.77,27.46-14.1,41.58-20.25,10-4.34,20.73-6,31.85-6a774.5,774.5,0,0,1,93.64,5.69c17.41,2.19,34.83,5.81,51.15,13.15,27.3,12.28,44.75,33.46,54.81,61a239.56,239.56,0,0,1,14.35,68.85c2.15,36.57,5.37,73.13,12.21,109.27a363.8,363.8,0,0,1,5.56,45.83c1.36,23.17,8.32,45.42,10.19,68.48,1.57,19.43,6,38.45,9.43,57.6,4.3,23.79,13.19,46.07,22.17,68.28,8.81,21.8,21.41,42.15,25.65,65.7,9.76,54.09,6.59,106.55-20.5,155.81-2.18,4-4.61,7.81-7,11.66C2289.07,900.35,2277.18,906.9,2260.85,904Z"/><path class="cls-5" d="M2230.72,948.53l.08,10c-1.41,5.63.9,12.36-4.91,16.69a130,130,0,0,0-12.25,30.09c-7,25.9-18.58,50.09-29.9,74.29-5,10.65-10.76,20.93-15.36,31.8s-11.31,20.69-20.82,28.14c-10,7.84-20.95,10.25-33.16,5.71-8.52-3.17-17.09-6.41-24.37-11.86-20-15-41.53-27.51-62.33-41.19a491.91,491.91,0,0,1-50.67-38.86c-25.72-22.2-52.19-43.54-78.33-65.27-5.85-4.87-11.61-9.84-17.31-14.67-3.22,1.79-1.82,5.38-3.79,7.34-.18-7.42-2.44-13.23-8.74-18.33-11.58-9.38-22.11-20.06-33.17-30.09-16.17-14.66-34.23-21-56.11-14.07-13.75,4.36-27.88,7.6-42,10.73-23.27,5.18-46.95,1.92-70.44,2.71a79.87,79.87,0,0,1-20.14-2.33c-14.87-3.31-28-10.1-40.59-18.33a26.76,26.76,0,0,1-5.36-4.11c-8.6-9.51-7.28-15.11,4.93-18.9,5.4-1.67,6.58-3.89,3.76-8.65-5.4-9.11-9.22-18.62-8.06-29.6.5-4.75.9-9.47,6.59-10.38s12-1.83,15.36,5.09c2.38,4.89,4.69,9.82,7.21,14.63,2,3.82,3.24,8.29,9.16,11.84,0-10.89.1-20.17,0-29.46a71.08,71.08,0,0,1,2.69-21.46c2.68-9,8-13.95,14.67-13.41q12.33,1,15.17,15.9c-1.62,5.27-2.3,10.84-4.74,15.89,1.62-3.29,2-7.23,5-9.77,2-1.78,4.16-3.47,6.08-5.37,3.92-3.88,7.93-3.26,12.35-.84,4.6,2.51,6.39,6.08,5.53,11.2-.5,3-3.13,5.71-.71,9.43,16.67-1.55,33.67-2.05,50.41-5.39,6.7-1.33,12.9-4,19.26-6.3,17.72-6.44,35-5,50.28,6.27,12.76,9.44,26.54,17.17,39.69,25.93,32.83,21,65.29,42.53,97.64,64.27,33.14,22.27,70.33,37.33,109,48.13,5.23,1.46,10.29,3.66,15.6,4.72,9.59,1.92,11.48.71,11.42-8.88-.19-27.69,1-55.4.07-83.05-.32-9.91,4.54-17.78,5.78-26.85.45-3.33,3.77-3.46,6.4-4,7.12-1.38,14.19-3.39,21.37-3.93,38.06-2.87,76.14-5.39,112.8,9.26,11.51,4.6,11.54,4.46,8.38,16.69-5.46,21-10.87,42.11-18.58,62.49-.83,3.93-1.5,7.89-2.53,11.78.06,1.65-1.12,3.06-.85,4.74a13.45,13.45,0,0,1,.62-2.44C2224.85,953.19,2221.82,944.92,2230.72,948.53Z"/><path class="cls-7" d="M880.09,370.2c8.6,9.56,16.64,19.11,18.9,32.73,1.11,6.73,5.82,12.92,9.15,19.22,7.07,13.39,1,30.68-11.89,39.06-8.62,5.63-16.85,11.17-26.82,14.28-7.11,2.21-13.57,3.57-20.71.34-5-2.24-9.75-3.67-13.39,3.53-2.78,5.51-9.51,6.47-15.09,1.9-8.26-6.77-16.87-9.57-27.24-7.57-1.26.24-3.12.31-3.92-.41-8-7.18-17.92-2.39-26.66-4.69-17.34,8.91-34.68,12.79-52-.07-12.08-7.34-18.63-19.48-26.55-30.46-4.87-9-6.59-18.69-6.43-28.87.38-24.43-.09-48.68,4.72-73.08,5.38-27.28-3.19-52-22.77-72.38a33.35,33.35,0,0,0-13.74-8.52c-11-3.7-18.83,1-20.49,12.72-2.66,18.61,3.93,33.83,17.74,46.15,17.93,16,17.11,31-2.73,44.92-5.19,3.63-10.58,7.12-16.72,9-7.63,2.31-13.51.88-15.37-8-9.88-24.06-22.38-46.42-40.25-65.69-11-11.88-17.89-26.13-18.9-42.29-3.8-3.2-6.82,3.91-10,.18s-2.06-7.8,0-11.46c3.29-5.9,7-11.57,10.47-17.28-.49-.8-.73-1.83-1.3-2.06-3.86-1.53-9.8,2.17-11.69-4-1.63-5.38,1.33-9.57,5.13-13.18a36.82,36.82,0,0,0,2.63-3.1c-8-10.2-8-10.21,2-16.79,1.13-.75,2.31-1.43,3.45-2.18,7.39-4.87,7.89-5.31,2.15-11.88-13.16-15-9.25-30.58-3.39-46.83,7.66,1,9.85,9.22,17.45,9.84,1.6-8.27,2.9-16.62,6.22-24.46,9.17-21.6,26.57-35,45.66-47C653.53,39.36,693,34.14,734.06,38.14c14.78,1.44,29.29,5.75,43.89,8.9,14.16,3.05,27.75,2.12,41.2-3.77,9.66-4.23,13.27-2.29,17.94,7.51,3.56,7.48,4.29,15.67,5.89,23.66a124.94,124.94,0,0,1,1.31,37.94c-1.11,10.41-4.11,20.74-16.21,24.4-3.07,2.69-6.86,2.83-10.28,1.7-16.68-5.49-34.16-3.53-51.2-5.62a47.28,47.28,0,0,0-36.85,10.75c-5.85,4.88-9.78,10.82-9.41,18.71,1.56,33.1-4.44,66-2.74,99.07,1.24,24,3.38,48,15.93,69.5.69,1.18,1.28,2.41,2,3.59,21.06,37,46.49,40.89,77.54,11.92,13.34-12.45,28.57-22.28,44-31.85,4.53-2.82,9.6-5.78,14.89-1,5.2,3.69,10.11,7.74,13.6,13.13,5.44,8.4,4.15,12.29-5.08,16.62-2,.95-4,2-6,3-9.64,9.67-22.28,14.7-31.65,20C853.9,367.86,867.24,364.57,880.09,370.2Z"/><path class="cls-8" d="M403.57,2626.42c6.52-1.18,12.6,1.47,18.71,2.7,41.73,8.43,79.72-.87,115.82-22.2,18.32-10.83,37.6-19.92,58.57-24.93,5.71-1.36,11.18-4,13.7-10.14,1.84-4.5,5.26-7.06,9.93-8.48,35-10.67,63.92-31.36,91.28-54.71,17.27,24.52,35.75,48,60.1,66,20.72,15.32,43.39,26.15,69.66,27.38a185.17,185.17,0,0,0,42-2.49c19.83-3.59,27.7.82,37.46,18.72,1.74,3.18,3.31,6.45,4.85,9.74,6.17,13.14,4.62,18-8.42,25.12-15.29,8.3-32.09,12.33-48.74,16.69-21.78,5.72-44,5.52-66.29,5.23-2.26,0-4.52.17-6.78.33-.2,0-.35.6-.75,1.32,2.85,2.82,6.89,3.45,10.39,5,10.85,4.86,16.56,14,19.73,24.72,3,10,.1,15.81-9,21.84-14.72,9.7-31.49,13.87-48.4,17.18-22.29,4.37-44.77,7.06-67.62,6.25-30.81-1.09-61.74,1.77-92.47-2.77-21.08-3.12-42.24-5.7-63.33-8.8a137.69,137.69,0,0,1-39.06-11.25c-5.7-2.68-11.72-4.69-17.85-7.1a22.14,22.14,0,0,0-1.87,3.93c-3.23,14.3-3.17,14-17.79,12.41-21.74-2.32-42.83-7.45-63.75-13.48-13.1-3.78-13.94-5.43-13.41-19.21C391.24,2678.49,398.44,2652.64,403.57,2626.42Z"/><path class="cls-5" d="M1947.33,231.16c10.78,24.36,26.84,44.92,45.89,63.24A184.27,184.27,0,0,0,2023,317.85c4.14,2.6,7.12,5.62,8.37,10.13,4.2,15.19,7.83,30.44,9.42,46.26,2.29,22.82,5.15,45.63,9,68.25,3.45,20.45,14,38,26.2,54.47,10.29,13.94,23,25.23,37.33,35,11.89,8.08,25.84,10.09,38.75,15.11-31.74,19.93-63.56,39.75-95.17,59.89-8.37,5.32-16.1,11.64-24.11,17.52-4.35,3.2-8.48,6.8-14.24,7.24-2-1.2-4-2.41-3.92-5.24a15.62,15.62,0,0,1,.77-3.43,13.62,13.62,0,0,1,2.44-4.72c4.27-4.79,9.52-8.88,11-15.6.74-.53,1.74-.89,2.17-1.6,5.28-8.75,6.6-41.42,1.41-50.2-10.59-17.9-21.89-35.39-32.47-53.31-6.45-10.91-16-15.09-28.05-15.18-8.17-.06-16.34-.28-24.52-.23-8.72.06-17-2-25.3-4.46-15.37-4.5-18.54-15.08-13.19-28.57,3.39-8.54,6.94-16.55,6.46-26-.35-7.11,4.48-10.1,10.67-12.13,7.08-2.33,15.19-3.66,17.93-12.51-4.94-5.27-11.22-3.2-16.89-3.59-7.58-.53-14.65-1-15.44-11.16-.3-3.86-3.94-5.87-7.2-7.62-4.4-2.36-9.05-4.34-13.16-7.13-11-7.46-11.46-16.85-1.46-25.73,3.72-3.3,7.79-6.21,11.72-9.26,14-10.9,19.22-25.58,19.22-42.92C1920.69,267.32,1928.47,246.72,1947.33,231.16Z"/><path class="cls-4" d="M1919.69,2629.47c6.91,6.1,15.41,7.18,24.08,7.35,39.08.8,77.86-2.94,116.52-8.21,7.66-1,14.78-4.11,22-6.81,4.4-1.65,8.61-5.59,15.65-2.2-14.12,14.46-32.71,21.08-47.9,32.47-15.75,11.81-35.78,14.75-54.38,24.28,12.54,16.21,26.63,28.33,47.16,29.12,27.66,1.07,55.28.07,82.56-5.63a160,160,0,0,0,44.58-16.1c19.89-10.95,41.39-18.23,61.24-29.24,14.43-8,28.5-15.85,38.56-29.32,2-2.67,4.34-4.59,7.91-4.36,5.4,9.1,3.37,19.43,4.31,29.15,1.05,11,2.85,21.5,7.69,31.41,5.82,11.91,6,24.5,4.38,37.23-1.29,10.44-4.45,14.39-15,16.45a567.25,567.25,0,0,1-79.49,9.26c-14,.73-28,1.88-41.95,3.65a469.71,469.71,0,0,1-54.22,3.63c-33.91.37-67.81,4.29-101.7,2.12-31.81-2-62.86-8-90.31-25.93a63.69,63.69,0,0,1-5.71-3.66c-8.64-7.08-8.4-14.53.73-20.92,4.3-3,9.37-5,14.37-11.51-12.67,0-23.42-1.08-33.88.22-24.19,3-44.08-6.64-63.29-19.26-6.8-4.47-12.49-10-10.64-18.75,1.81-8.6,9-12.32,16.93-13.63a159.48,159.48,0,0,1,25.7-2.34c19.59-.07,38.9-1.23,57.38-8.63C1914.89,2628.54,1917.44,2629.38,1919.69,2629.47Z"/><path class="cls-5" d="M871.87,313.54a25.53,25.53,0,0,0-14,4.33c-17.23,11.76-34.7,23.16-49.62,38-8.74,8.67-20.07,12.1-31.72,14.41-6,1.19-11.38-.82-16.64-4.22-22.36-14.46-34.56-36.13-40.39-60.85-6.89-29.26-8-59.28-4.22-89.28,2.17-17.18,2.21-34.47,1.33-51.64-.78-15.3,7.19-23.58,19.13-29.82a48.35,48.35,0,0,1,23.71-5.22c19.91.52,40-.27,59.37,5.76a84.77,84.77,0,0,0,9.32,1.81c14.67,18.35,23.13,39.24,27.82,62.27,4.14,20.36,8.12,40.6,7.5,61.46-.21,7.13,3,12,8.58,15.81.74.5,1.57.9,2.3,1.41,17.21,12,17.33,18.43.72,31.59C873.69,310.37,872.91,312.12,871.87,313.54Z"/><path class="cls-5" d="M1877.6,1005.21c4.17,24.08,8.44,48.15,12.41,72.26.8,4.87.44,9.93.61,14.9-26.08-13.6-50.27-30.61-77.15-42.79-6.6-3-13.17-6.09-19.53-9.56-4.82-2.63-8.34-1.66-12,2.09-8.6,8.69-17.34,17.22-27.15,24.62-8.24,6.22-17,9.8-27.54,9.69-27.58-.28-55.31,1.28-82.23-6.51-4.72-1.37-7.52,0-11,2.58-19.78,14.82-41.35,13.6-63.32,6.32-7.54-2.5-10.36-7-9.23-13,1.23-6.57,5.46-10.42,12-11.14,4.93-.55,10-.21,14.94-.33,4.52-.11,9,0,13.48-1.22,13.47-3.78,14.3-5.11,12.09-18.82-2.53-15.74.76-28.94,10.21-43.14,8.84-13.28,20.22-15.14,32.75-19.6,20.32-7.23,41.45-9,62.35-12.07,21.82-3.26,41.82,5.53,61.76,12.79,28.84,10.52,57.49,21.58,86.31,32.17C1870.43,1005.61,1874,1007.84,1877.6,1005.21Z"/><path class="cls-5" d="M885.49,1100.58c4.06-31.54,2-63.06-.31-94.57-.72-10-2.93-19.63-8-28.4-3.2-5.49-.36-7.29,4.7-7.76,2.79-1.54,6-1.46,9-2.51,24.65-6.51,43-22.51,60-40.34,3.46-3.64,6.67-7.47,11.1-9.82,11-5.82,18.71-1.28,19.12,11,.18,5.46.24,10.9-7,17.14,13,0,22.4-.28,31.71.08,8.57.34,10.44,2.06,9.88,10.75-.26,4.13.54,6.9,3.11,9.69,1.91,2.07,3.24,4.71,2.74,7.45-2,10.92,4.51,14.22,13.45,15.93,7.56,1.44,11.23,7.77,10.27,14-1.47,9.45,3.58,18.88-.88,28.1-1.24,2.57.35,5.26.84,7.91,2.32,12.67-1.18,20.3-12.19,27.23-1.89,1.19-4.93,1.79-5.16,4-1.39,13.92-14.7,17.74-22.71,25.45-6.94,6.66-18.57,7.66-24.28,17.84-2.15,3.83-8.8,3.21-14,1.81-14-3.75-28.08-6.88-42-10.62a39,39,0,0,0-12-1.62c-9.36-10.36-9.71-10.4-27.39-2.86Z"/><path class="cls-9" d="M687.38,438.62c7.3,9.65,14.35,19.51,23.57,27.52,7.25,6.2,12.5,13.95,17.13,22.17,3.91,6.94,8,7.43,13.24,1,2.81-3.42,4.51-9.46,11.19-7.27,5,.67,7.52,4.4,10.13,8.13,8.76,12.48,16,25.9,24.36,38.67,9.68,14.84,7.26,32.09-4.2,46.26-1.41,1.74-2.75,3.54-4.12,5.31-2.25-1-3.75-4.57-6.92-2.2-2.54,1.9-2.64,4.38-1.22,7.15C780,603.9,785.92,623.86,793.8,643c17,41.34,31.59,83.38,39.4,127.54.62,3.53.58,7.18.85,10.78,1.88,9.72.57,19.52.82,29.28.06,2.55-1,4.23-3.93,3.94-4.86-13.64-10.66-27-14.38-41C808.92,745,795.08,718.81,785.37,691c-15.14-43.32-36-84.21-56.43-125.08-20.67-41.32-43.26-82-72.43-118-15.74-19.43-33.88-37.9-59.72-45,2.84-6.86,6.39-13.29,11.53-18.73,6.74-5,12.32-.23,17.2,3C648.1,401.92,671.42,415.88,687.38,438.62Z"/><path class="cls-5" d="M687.38,438.62c-12.25-7-19.87-19.47-31.74-27.05-11.36-7.25-22.17-15.36-33.41-22.83-4.11-2.73-8.65-5-13.92-4.52q-.1-12.15-.23-24.28c8.48,8.12,8.51,8.17,18.35,3.08,10.58-5.47,20.68-11.43,25.54-23.28,3.7-9,3.43-11.33-4.29-17.27a85,85,0,0,1-20.34-21.63c-7.13-11.12-8.11-22.95-6.46-35.3,1.73-13,12.37-19.07,24.86-14.65,17.2,6.07,27,19.88,33.65,35.43,8.5,20,11.29,41,4.4,62.38-3.26,10.13-3.2,20.54-2.94,31,.24,9.52,1,19.06.7,28.56C681.22,418.91,682.73,429,687.38,438.62Z"/><path class="cls-10" d="M752.51,482.06c-7.52,4.39-10,14-18.33,17.7-3.86-.87-5.24-4.36-7.09-7.37L711,466.14c4.84,2.17,10,3.08,14.74,6.11,9.2,6,18-.61,26.84-2.61,3.37-.76,6.23-3.65,9.9-1.05Z"/><path class="cls-11" d="M880.09,370.2c-13.76-1.21-27.8,1.76-44.37-3.62,15-6,24.44-17.19,38.64-20.26C876.53,354.22,875.91,362.78,880.09,370.2Z"/><path class="cls-12" d="M2028.81,602.71c1.44,2.21,3.29,4.34.81,7-3.6,3.92-7.14,7.89-10.71,11.84a8.5,8.5,0,0,0-2.81,2.35v0a1.46,1.46,0,0,1-2.47.42l-3.24-3.31C2015.31,613.72,2021,607.18,2028.81,602.71Z"/><path class="cls-13" d="M2225.89,975.24c1.32-5.66,1.79-11.57,4.91-16.69.85,1.94.69,4.37,2.8,5.68q-1.38,5.81-2.75,11.62l-1.75-.19Z"/><path class="cls-14" d="M1672.83,828.66c-.33,4-2.31,7.36-4.73,12-1.43-7.67,1.18-13,4.45-18.09Q1672.69,825.6,1672.83,828.66Z"/><path class="cls-15" d="M890.8,967.34c-2.35,3.12-5.76,2.45-9,2.51,2.45-2.71,5.64-4.26,8.9-5.69C890.76,965.22,890.78,966.28,890.8,967.34Z"/><path class="cls-5" d="M2229.1,975.66c.58.09,1.17.14,1.75.18.55,1.95.09,3.44-1.88,4.26C2229,978.61,2229.06,977.14,2229.1,975.66Z"/><path class="cls-5" d="M2226.53,988.31a3.26,3.26,0,0,1,1.58-4.29C2228.92,986,2228.58,987.45,2226.53,988.31Z"/><path class="cls-5" d="M915,1111.46a4.73,4.73,0,0,1-1.71-5.13C915.24,1107.58,915.66,1109.33,915,1111.46Z"/><path class="cls-16" d="M871.24,1233.84c4.34-39.86,8.12-79.76,9-119.88.12-5.08,1.29-9.77,5.2-13.38l-.17-.07c2.13,5.46,3.59,11.32,6.52,16.32,7.67,13.06,7.66,26.64,4,40.64-3.26,12.48-3.58,24.73,0,37.38,3.11,11,1.51,21.43-7.49,29.91-4.91,4.63-9.21,9.92-13.78,14.91C869.46,1240,870.52,1236.84,871.24,1233.84Z"/><path class="cls-17" d="M830.94,814.57c3.9-2.92,2.46-7.14,2.59-10.93.27-7.42.36-14.86.52-22.29,4.26,13.6,1.09,27.53,1.88,41.57C832.65,820.92,830.93,818.27,830.94,814.57Z"/><path class="cls-18" d="M844.79,1411.41c-1.44-5.35,2-11.55-2.79-16.33-.1-3.28,1.08-6.06,4.72-9.92C847.06,1395,849.1,1403.25,844.79,1411.41Z"/><path class="cls-19" d="M871.24,1233.84c.86,2.09.59,4.83,3.35,5.83-.83,2.06-2.1,4.06-4.49,3.2-.76-.27-1.05-3-.84-4.54S870.54,1235.33,871.24,1233.84Z"/><path class="cls-20" d="M2230.72,948.53c-2.07,0-4.3-.32-4.67,2.72-.34,2.88-.08,6-2.54,8.19-2.6-1-1.23-3.82-2.46-5.45,1.15-4,1.23-8.38,4.53-11.52C2226.35,945.29,2230.7,945.07,2230.72,948.53Z"/><path class="cls-21" d="M2013.62,624.37l2.47-.42c.79,2.58,1.59,5.17,2.39,7.75C2010.43,632.31,2010.34,632.18,2013.62,624.37Z"/><path class="cls-22" d="M1694.62,874.3c9.9,4.34,20,2.59,30.18.33-20,14.92-23.92,15.84-33.14,2.66C1690.84,874.51,1692.06,873.74,1694.62,874.3Z"/><path class="cls-23" d="M1694.62,874.3c-1,1-2,2-3,3a13.62,13.62,0,0,1-2.49-2.81c-.66-1.39-2.31-3.32-.18-4.44,1.64-.86,3.1.82,4.22,2.13A19.15,19.15,0,0,1,1694.62,874.3Z"/><path class="cls-24" d="M2221.05,954c1.83,1.36,1.83,3.55,2.46,5.45-.62,1.38-1.17,4.33-2.8,1C2219.88,958.75,2220.87,956.17,2221.05,954Z"/><path class="cls-21" d="M2016.1,623.93a3,3,0,0,1,2.81-2.35Z"/><path class="cls-25" d="M1645.6,1028.19c-3.93-5.25-3.58-10.59-.79-17.53C1650.09,1017.07,1648.19,1022.64,1645.6,1028.19Z"/></g></g></svg>